<?xml version="1.0" encoding="UTF-8"?>
<svg id="Layer_1" data-name="Layer 1" xmlns="http://www.w3.org/2000/svg" width="292.04" height="290.34" xmlns:xlink="http://www.w3.org/1999/xlink" viewBox="0 0 292.04 290.34">
  <defs>
    <style>
      .cls-1 {
        stroke: url(#linear-gradient);
      }

      .cls-1, .cls-2, .cls-3, .cls-4 {
        stroke-miterlimit: 10;
      }

      .cls-1, .cls-2, .cls-4 {
        fill: #fff;
      }

      .cls-2 {
        stroke: url(#linear-gradient-2);
      }

      .cls-3 {
        fill: none;
        stroke: #fff;
        stroke-width: 6px;
      }

      .cls-4 {
        stroke: url(#linear-gradient-3);
      }
    </style>
    <linearGradient id="linear-gradient" x1="203.59" y1="140.29" x2="238.62" y2="140.29" gradientUnits="userSpaceOnUse">
      <stop offset=".2" stop-color="#d10a05"/>
      <stop offset=".24" stop-color="#c00"/>
      <stop offset=".57" stop-color="#f63"/>
      <stop offset="1" stop-color="#f90"/>
    </linearGradient>
    <linearGradient id="linear-gradient-2" x1="44.31" y1="139.16" x2="199.33" y2="139.16" xlink:href="#linear-gradient"/>
    <linearGradient id="linear-gradient-3" x1="50.59" y1="153.1" x2="76.34" y2="153.1" xlink:href="#linear-gradient"/>
  </defs>
  <ellipse class="cls-3" cx="146.02" cy="145.17" rx="143.02" ry="142.17"/>
  <rect class="cls-1" x="204.09" y="62.91" width="34.03" height="154.75" rx="1.02" ry="1.02"/>
  <path class="cls-2" d="m198.7,120.98c-.11,1.65-.56,6.91-3.75,16.31-.67,1.99-2.38,6.84-6,14.44-1.27,2.66-5.07,10.47-11.25,20.44-3.03,4.88-6.54,9.92-13.56,19.99-2.47,3.54-3.74,5.35-5.47,7.71-2.82,3.85-7.01,9.34-12.51,15.75-1.86-3.64-4.7-9.25-8.15-16.11-4.18-8.31-6.74-13.48-10.48-20.96-6.99-13.97-13.98-27.95-20.97-41.92-3.36-6.71-6.71-13.42-10.07-20.12-5.22-10.43-10.59-21.07-18.94-29.21s-20.4-13.45-31.75-10.77c11.58-12.45,30.59-17.39,46.76-12.15,12.33,4,20.91,10.85,33.24,25.07,12.62,14.58,29.04,35.25,46.29,62.47,1.65-1.78,3.64-3.97,5.97-6.65,3.05-3.51,4.58-5.27,6.25-7.46,3.84-5.03,8.6-10.83,11.2-19.08,1.72-5.44,1.66-9.4,2.26-9.37.72.04,1.33,5.87.94,11.62h-.01Z"/>
  <path class="cls-4" d="m75.84,217.59h-24.19l-.56-128.81c3.97,1.23,10.13,3.87,15.38,10.02,5.42,6.34,9.37,13.95,9.37,23.09v95.71h0Z"/>
</svg>