<?xml version="1.0" encoding="UTF-8"?>
<svg id="Layer_1" data-name="Layer 1" xmlns="http://www.w3.org/2000/svg" width="295.62" height="290.34" xmlns:xlink="http://www.w3.org/1999/xlink" viewBox="0 0 295.62 290.34">
  <defs>
    <style>
      .cls-1 {
        fill: #3f3d3e;
      }

      .cls-2 {
        fill: none;
        stroke: #3f3d3e;
        stroke-miterlimit: 10;
        stroke-width: 6px;
      }

      .cls-3 {
        fill: url(#linear-gradient);
      }
    </style>
    <linearGradient id="linear-gradient" x1="45.8" y1="138.97" x2="198.83" y2="138.97" gradientUnits="userSpaceOnUse">
      <stop offset=".2" stop-color="#d10a05"/>
      <stop offset=".24" stop-color="#c00"/>
      <stop offset=".57" stop-color="#f63"/>
      <stop offset="1" stop-color="#f90"/>
    </linearGradient>
  </defs>
  <ellipse class="cls-2" cx="146.02" cy="145.17" rx="143.02" ry="142.17"/>
  <rect class="cls-1" x="204.09" y="62.91" width="34.03" height="154.75" rx="1.02" ry="1.02"/>
  <path class="cls-3" d="M198.7,120.98c-.11,1.65-.56,6.91-3.75,16.31-.67,1.99-2.38,6.84-6,14.44-1.27,2.66-5.07,10.47-11.25,20.44-3.03,4.88-6.54,9.92-13.56,19.99-2.47,3.54-3.74,5.35-5.47,7.71-2.82,3.85-7.01,9.34-12.51,15.75-1.86-3.64-4.7-9.25-8.15-16.11-4.18-8.31-6.74-13.48-10.48-20.96-6.99-13.97-13.98-27.95-20.97-41.92-3.36-6.71-6.71-13.42-10.07-20.12-5.22-10.43-10.59-21.07-18.94-29.21-8.35-8.14-20.4-13.45-31.75-10.77,11.58-12.45,30.59-17.39,46.76-12.15,12.33,4,20.91,10.85,33.24,25.07,12.62,14.58,29.04,35.25,46.29,62.47,1.65-1.78,3.64-3.97,5.97-6.65,3.05-3.51,4.58-5.27,6.25-7.46,3.84-5.03,8.6-10.83,11.2-19.08,1.72-5.44,1.66-9.4,2.26-9.37,.72,.04,1.33,5.87,.94,11.62Z"/>
  <path class="cls-1" d="M75.84,217.59h-24.19l-.56-128.81c3.97,1.23,10.13,3.87,15.38,10.02,5.42,6.34,9.37,13.95,9.37,23.09v95.71Z"/>
</svg>