<?xml version="1.0" encoding="UTF-8"?>
<svg id="Layer_1" data-name="Layer 1" xmlns="http://www.w3.org/2000/svg" width="429.85" height="443.38" viewBox="0 0 429.85 443.38">
  <defs>
    <style>
      .cls-1 {
        font-family: Poppins-Bold, Poppins;
        font-size: 25px;
        font-weight: 700;
      }

      .cls-2 {
        stroke-width: 3px;
      }

      .cls-2, .cls-3 {
        fill: none;
        stroke: #f18a24;
        stroke-miterlimit: 10;
      }

      .cls-4 {
        fill: #ffffe6;
      }

      .cls-3 {
        stroke-width: 5px;
      }
    </style>
  </defs>
  <path class="cls-4" d="m79.04,0h170.96v175c0,41.39-33.61,75-75,75H0V79.04C0,35.42,35.42,0,79.04,0Z"/>
  <path class="cls-3" d="m348.91,440.84c6.75.23,18.46-.25,31.68-5.59,14.35-5.79,23.26-14.4,26.71-18.01,5.54-5.8,8.79-11.11,9.94-13.04,6.76-11.45,8.47-21.88,9.32-27.33,1-6.45.87-13.41.62-27.33-.13-7.2-.4-13.19-.62-17.39"/>
  <text class="cls-1" transform="translate(54.14 132.82)"><tspan x="0" y="0">Hackathon</tspan></text>
  <line class="cls-2" x1="53.88" y1="135.87" x2="196.74" y2="135.87"/>
</svg>