<?xml version="1.0" encoding="UTF-8"?>
<svg id="Layer_1" data-name="Layer 1" xmlns="http://www.w3.org/2000/svg" width="471.55" height="500" viewBox="0 0 471.55 500">
  <defs>
    <style>
      .cls-1 {
        letter-spacing: 0em;
      }

      .cls-2 {
        letter-spacing: -.02em;
      }

      .cls-3 {
        letter-spacing: 0em;
      }

      .cls-4 {
        letter-spacing: .01em;
      }

      .cls-5 {
        letter-spacing: 0em;
      }

      .cls-6 {
        letter-spacing: 0em;
      }

      .cls-7 {
        letter-spacing: -.04em;
      }

      .cls-8 {
        letter-spacing: 0em;
      }

      .cls-9 {
        letter-spacing: 0em;
      }

      .cls-10 {
        letter-spacing: -.01em;
      }

      .cls-11 {
        fill: #f18a24;
      }

      .cls-12 {
        letter-spacing: 0em;
      }

      .cls-13 {
        letter-spacing: 0em;
      }

      .cls-14 {
        letter-spacing: -.01em;
      }

      .cls-15 {
        letter-spacing: 0em;
      }

      .cls-16 {
        letter-spacing: -.03em;
      }

      .cls-17 {
        letter-spacing: 0em;
      }

      .cls-18 {
        letter-spacing: -.04em;
      }

      .cls-19 {
        letter-spacing: 0em;
      }

      .cls-20 {
        fill: #323232;
        font-family: MyriadPro-Regular, 'Myriad Pro';
        font-size: 18px;
      }

      .cls-21 {
        fill: none;
        stroke: #f18a24;
        stroke-miterlimit: 10;
        stroke-width: 2px;
      }

      .cls-22 {
        letter-spacing: -.05em;
      }

      .cls-23 {
        letter-spacing: -.01em;
      }

      .cls-24 {
        letter-spacing: -.01em;
      }

      .cls-25 {
        letter-spacing: 0em;
      }

      .cls-26 {
        letter-spacing: 0em;
      }

      .cls-27 {
        letter-spacing: .01em;
      }

      .cls-28 {
        letter-spacing: 0em;
      }

      .cls-29 {
        letter-spacing: 0em;
      }

      .cls-30 {
        letter-spacing: -.01em;
      }

      .cls-31 {
        letter-spacing: 0em;
      }

      .cls-32 {
        letter-spacing: 0em;
      }

      .cls-33 {
        letter-spacing: 0em;
      }
    </style>
  </defs>
  <line class="cls-21" x1="225.09" x2="225.09" y2="500"/>
  <circle class="cls-11" cx="225.09" cy="149.59" r="4"/>
  <circle class="cls-11" cx="225.09" cy="315.39" r="4"/>
  <text class="cls-20" transform="translate(123.33 154.4)"><tspan class="cls-4" x="0" y="0">H</tspan><tspan class="cls-19" x="11.92" y="0">igh</tspan><tspan class="cls-17" x="36.18" y="0">S</tspan><tspan x="45.16" y="0">chool</tspan><tspan class="cls-30" x="-123.33" y="21.6">C</tspan><tspan x="-113.09" y="21.6">ompu</tspan><tspan class="cls-12" x="-68.04" y="21.6">t</tspan><tspan x="-62.19" y="21.6">er </tspan><tspan class="cls-17" x="-43.47" y="21.6">S</tspan><tspan x="-34.49" y="21.6">cien</tspan><tspan class="cls-12" x="-3.2" y="21.6">c</tspan><tspan x="4.75" y="21.6">e G</tspan><tspan class="cls-13" x="29.21" y="21.6">r</tspan><tspan x="35.01" y="21.6">adu</tspan><tspan class="cls-8" x="63.75" y="21.6">a</tspan><tspan class="cls-12" x="72.36" y="21.6">t</tspan><tspan x="78.21" y="21.6">e</tspan><tspan x="-120.76" y="43.2">Bh</tspan><tspan class="cls-33" x="-101.01" y="43.2">a</tspan><tspan class="cls-31" x="-92.48" y="43.2">v</tspan><tspan class="cls-3" x="-83.9" y="43.2">ans vid</tspan><tspan class="cls-31" x="-31.27" y="43.2">y</tspan><tspan class="cls-3" x="-22.86" y="43.2">a </tspan><tspan class="cls-28" x="-10.37" y="43.2">M</tspan><tspan x="4.21" y="43.2">andi</tspan><tspan class="cls-22" x="37.24" y="43.2">r</tspan><tspan x="42.17" y="43.2">, </tspan><tspan class="cls-4" x="49.72" y="43.2">I</tspan><tspan x="54.2" y="43.2">ndia</tspan><tspan class="cls-17" x="11.86" y="64.8">M</tspan><tspan class="cls-33" x="26.44" y="64.8">a</tspan><tspan class="cls-18" x="34.97" y="64.8">y</tspan><tspan x="42.75" y="64.8">, 2022</tspan></text>
  <text class="cls-20" transform="translate(239.41 320.09)"><tspan class="cls-16" x="0" y="0">P</tspan><tspan x="9.13" y="0">ost G</tspan><tspan class="cls-6" x="47.54" y="0">r</tspan><tspan x="53.33" y="0">adu</tspan><tspan class="cls-9" x="82.08" y="0">a</tspan><tspan class="cls-25" x="90.68" y="0">t</tspan><tspan x="96.53" y="0">e Diploma</tspan><tspan class="cls-29" x="0" y="21.6">I</tspan><tspan class="cls-31" x="4.48" y="21.6">n</tspan><tspan class="cls-32" x="14.4" y="21.6">t</tspan><tspan x="20.25" y="21.6">e</tspan><tspan class="cls-13" x="29.27" y="21.6">r</tspan><tspan x="35.06" y="21.6">a</tspan><tspan class="cls-27" x="43.74" y="21.6">c</tspan><tspan x="52.04" y="21.6">ti</tspan><tspan class="cls-23" x="62.21" y="21.6">v</tspan><tspan class="cls-5" x="70.68" y="21.6">e </tspan><tspan class="cls-28" x="83.52" y="21.6">M</tspan><tspan x="98.1" y="21.6">edia </tspan><tspan class="cls-1" x="133.97" y="21.6">D</tspan><tspan x="146.03" y="21.6">esi</tspan><tspan class="cls-32" x="166.39" y="21.6">g</tspan><tspan x="176.34" y="21.6">n</tspan><tspan class="cls-7" x="0" y="43.2">F</tspan><tspan x="7.96" y="43.2">ansh</tspan><tspan class="cls-33" x="43.74" y="43.2">a</tspan><tspan class="cls-15" x="52.27" y="43.2">w</tspan><tspan x="65.34" y="43.2">e </tspan><tspan class="cls-24" x="78.17" y="43.2">C</tspan><tspan x="88.42" y="43.2">olleg</tspan><tspan class="cls-10" x="125.87" y="43.2">e</tspan><tspan x="134.67" y="43.2">, </tspan><tspan class="cls-14" x="142.22" y="43.2">L</tspan><tspan x="150.46" y="43.2">ondon, ON</tspan><tspan class="cls-26" x="0" y="64.8">S</tspan><tspan class="cls-5" x="8.98" y="64.8">e</tspan><tspan class="cls-2" x="18" y="64.8">p</tspan><tspan x="27.81" y="64.8">, 2021</tspan></text>
</svg>