<?xml version="1.0" encoding="UTF-8"?>
<svg id="Layer_1" data-name="Layer 1" xmlns="http://www.w3.org/2000/svg" width="426.3" height="500" viewBox="0 0 426.3 500">
  <defs>
    <style>
      .cls-1 {
        letter-spacing: 0em;
      }

      .cls-2 {
        fill: #323200;
      }

      .cls-2, .cls-3 {
        font-family: MyriadPro-Regular, 'Myriad Pro';
        font-size: 18px;
      }

      .cls-4 {
        letter-spacing: 0em;
      }

      .cls-5 {
        letter-spacing: 0em;
      }

      .cls-6 {
        letter-spacing: -.02em;
      }

      .cls-7 {
        letter-spacing: 0em;
      }

      .cls-8 {
        letter-spacing: -.04em;
      }

      .cls-9 {
        letter-spacing: .02em;
      }

      .cls-10 {
        letter-spacing: -.04em;
      }

      .cls-11 {
        letter-spacing: .03em;
      }

      .cls-12 {
        letter-spacing: 0em;
      }

      .cls-13 {
        letter-spacing: -.01em;
      }

      .cls-14 {
        fill: #f18a24;
      }

      .cls-15 {
        letter-spacing: 0em;
      }

      .cls-16 {
        letter-spacing: 0em;
      }

      .cls-17 {
        letter-spacing: -.01em;
      }

      .cls-18 {
        letter-spacing: 0em;
      }

      .cls-19 {
        letter-spacing: 0em;
      }

      .cls-3 {
        fill: #323232;
      }

      .cls-20 {
        fill: none;
        stroke: #f18a24;
        stroke-miterlimit: 10;
        stroke-width: 2px;
      }

      .cls-21 {
        letter-spacing: 0em;
      }

      .cls-22 {
        letter-spacing: -.01em;
      }

      .cls-23 {
        letter-spacing: -.01em;
      }

      .cls-24 {
        letter-spacing: 0em;
      }
    </style>
  </defs>
  <line class="cls-20" x1="178.22" x2="178.22" y2="500"/>
  <circle class="cls-14" cx="178.22" cy="149.59" r="4"/>
  <circle class="cls-14" cx="178.22" cy="315.39" r="4"/>
  <text class="cls-2" transform="translate(83.09 153.52)"><tspan x="0" y="0">Supe</tspan><tspan class="cls-11" x="38.05" y="0">r</tspan><tspan x="44.39" y="0">visor</tspan><tspan class="cls-13" x="-5.27" y="21.6">T</tspan><tspan x="3.46" y="21.6">im Ho</tspan><tspan class="cls-9" x="48.11" y="21.6">r</tspan><tspan class="cls-15" x="54.43" y="21.6">t</tspan><tspan x="60.28" y="21.6">on</tspan><tspan x="-83.09" y="43.2">Hu</tspan><tspan class="cls-18" x="-61.43" y="43.2">r</tspan><tspan x="-55.73" y="43.2">on </tspan><tspan class="cls-1" x="-32.04" y="43.2">St</tspan><tspan class="cls-5" x="-17.32" y="43.2">, </tspan><tspan class="cls-22" x="-9.77" y="43.2">L</tspan><tspan x="-1.53" y="43.2">ondon, ON</tspan><tspan x="-63.07" y="64.8">N</tspan><tspan class="cls-21" x="-51.23" y="64.8">o</tspan><tspan class="cls-8" x="-41.47" y="64.8">v</tspan><tspan x="-33.51" y="64.8">, 2021 - </tspan><tspan class="cls-6" x="24.12" y="64.8">P</tspan><tspan class="cls-18" x="33.41" y="64.8">r</tspan><tspan x="39.11" y="64.8">ese</tspan><tspan class="cls-12" x="64.28" y="64.8">n</tspan><tspan x="74.19" y="64.8">t</tspan></text>
  <text class="cls-3" transform="translate(194.16 321.34)"><tspan x="0" y="0">Backend </tspan><tspan class="cls-4" x="67.91" y="0">D</tspan><tspan x="79.97" y="0">e</tspan><tspan class="cls-18" x="88.99" y="0">v</tspan><tspan x="97.47" y="0">eloper</tspan><tspan class="cls-16" x="0" y="21.6">P</tspan><tspan x="9.49" y="21.6">l</tspan><tspan class="cls-19" x="13.73" y="21.6">a</tspan><tspan class="cls-7" x="22.27" y="21.6">y </tspan><tspan class="cls-10" x="34.56" y="21.6">F</tspan><tspan x="42.52" y="21.6">ai</tspan><tspan class="cls-16" x="55.4" y="21.6">r</tspan><tspan class="cls-7" x="61.2" y="21.6">- FIP</tspan><tspan class="cls-10" x="0" y="43.2">F</tspan><tspan x="7.96" y="43.2">ansh</tspan><tspan class="cls-24" x="43.74" y="43.2">a</tspan><tspan class="cls-18" x="52.27" y="43.2">w</tspan><tspan x="65.34" y="43.2">e </tspan><tspan class="cls-23" x="78.17" y="43.2">C</tspan><tspan x="88.42" y="43.2">olleg</tspan><tspan class="cls-13" x="125.87" y="43.2">e</tspan><tspan x="134.67" y="43.2">, </tspan><tspan class="cls-17" x="142.22" y="43.2">L</tspan><tspan x="150.46" y="43.2">ondon, ON</tspan><tspan x="0" y="64.8">Jan, 2023</tspan></text>
</svg>